<svg width="620" height="250" viewBox="0 0 620 250" fill="none" xmlns="http://www.w3.org/2000/svg">
<rect width="620" height="250" fill="white"/>
<rect x="25" y="38" width="570" height="184" fill="white"/>
<path d="M31 215V37" stroke="#E5E5E5" stroke-linejoin="round"/>
<path d="M55 216V38" stroke="#E5E5E5" stroke-linejoin="round"/>
<path d="M79 216V38" stroke="#E5E5E5" stroke-linejoin="round"/>
<path d="M102 216V38" stroke="#E5E5E5" stroke-linejoin="round"/>
<path d="M126 216V38" stroke="#E5E5E5" stroke-linejoin="round"/>
<path d="M149 216V38" stroke="#E5E5E5" stroke-linejoin="round"/>
<path d="M173 216V38" stroke="#E5E5E5" stroke-linejoin="round"/>
<path d="M197 216V38" stroke="#E5E5E5" stroke-linejoin="round"/>
<path d="M220 216V38" stroke="#E5E5E5" stroke-linejoin="round"/>
<path d="M244 216V38" stroke="#E5E5E5" stroke-linejoin="round"/>
<path d="M268 216V38" stroke="#E5E5E5" stroke-linejoin="round"/>
<path d="M291 216V38" stroke="#E5E5E5" stroke-linejoin="round"/>
<path d="M314 216V38" stroke="#E5E5E5" stroke-linejoin="round"/>
<path d="M339 216V38" stroke="#E5E5E5" stroke-linejoin="round"/>
<path d="M361 216V38" stroke="#E5E5E5" stroke-linejoin="round"/>
<path d="M385 216V38" stroke="#E5E5E5" stroke-linejoin="round"/>
<path d="M408 216V38" stroke="#E5E5E5" stroke-linejoin="round"/>
<path d="M432 216V38" stroke="#E5E5E5" stroke-linejoin="round"/>
<path d="M456 216V38" stroke="#E5E5E5" stroke-linejoin="round"/>
<path d="M479 216V38" stroke="#E5E5E5" stroke-linejoin="round"/>
<path d="M503 216V38" stroke="#E5E5E5" stroke-linejoin="round"/>
<path d="M527 216V38" stroke="#E5E5E5" stroke-linejoin="round"/>
<path d="M550 216V38" stroke="#E5E5E5" stroke-linejoin="round"/>
<path d="M574 216V38" stroke="#E5E5E5" stroke-linejoin="round"/>
<path d="M31.5 98C31.5 98 33 89 36 88C39 87 56 87.5 56 87.5M56 113H77M78 87.5H83M90.5 87.5H101.5M101.5 113H119.5M126 113H148.5M150 140H172.5M172.5 113H176M184 113H195M197 140H219.5M232.5 87.5H243.5M219.5 87.5H225M243.5 113H248.5M255 113H268M279 87H290M268 87H271.5M290 113H305.5M314.5 113H318.5M325 113H338M338 140H342M349.5 140H361.5M361.5 113H365.5M373 113H386M385 140H394.5M406 140H408M408 153.5H412M430.5 153.5H436M456 153.5H461.5M478.5 153.5H483M503 153.5H507.5M523.5 153.5H528M419 180H423.5M467 180H471.5M513 180H517.5M442 140H446.5M453.5 140H455.5M489 140H494M500.5 140H502.5M535 140H540M550 113H572" stroke="#FB5D04" stroke-width="5" stroke-linejoin="round"/>
</svg>
